<?xml version="1.0" standalone="no"?>
<!DOCTYPE svg PUBLIC "-//W3C//DTD SVG 20010904//EN"
 "http://www.w3.org/TR/2001/REC-SVG-20010904/DTD/svg10.dtd">
<svg version="1.0" xmlns="http://www.w3.org/2000/svg"
 width="500.000000pt" height="500.000000pt" viewBox="0 0 500.000000 500.000000"
 preserveAspectRatio="xMidYMid meet">
<metadata>
Created by potrace 1.14, written by Peter Selinger 2001-2017
</metadata>
<g transform="translate(0.000000,500.000000) scale(0.100000,-0.100000)"
fill="#000000" stroke="none">
<path d="M2437 2816 c-10 -8 -22 -28 -27 -46 -8 -27 -6 -35 16 -57 43 -43 111
-16 119 48 7 54 -62 90 -108 55z"/>
<path d="M3475 2818 c-60 -11 -81 -31 -60 -60 11 -17 11 -27 -1 -67 -8 -25
-16 -50 -18 -56 -1 -5 -9 -30 -16 -55 -7 -25 -14 -49 -16 -55 -1 -5 -12 -39
-23 -74 -12 -35 -21 -70 -21 -78 0 -7 -13 -27 -29 -42 -38 -38 -30 -41 104
-41 79 0 105 3 115 15 9 10 9 15 1 15 -21 0 -10 56 49 248 64 212 65 236 13
248 -15 3 -32 7 -38 8 -5 1 -32 -1 -60 -6z"/>
<path d="M4245 2818 c-27 -4 -60 -12 -72 -19 -22 -12 -22 -14 -8 -36 14 -21
14 -29 -1 -86 -10 -34 -20 -64 -23 -67 -6 -5 -9 -15 -14 -48 -1 -9 -6 -23 -10
-29 -5 -7 -6 -13 -2 -13 3 0 -1 -13 -10 -30 -9 -16 -13 -30 -11 -30 2 0 -4
-25 -15 -55 -10 -30 -19 -68 -19 -85 0 -29 1 -30 48 -30 35 0 56 6 72 20 13
11 27 20 32 20 5 0 18 -9 30 -20 12 -11 33 -21 47 -22 60 -4 106 1 130 13 26
13 100 86 102 101 2 10 3 15 18 65 39 137 -34 229 -156 199 -18 -4 -33 -12
-33 -18 0 -6 -2 -9 -5 -6 -3 3 2 33 11 66 16 56 16 63 1 85 -19 29 -45 35
-112 25z m115 -259 c8 -29 -25 -144 -52 -181 -28 -41 -52 -27 -44 25 4 23 11
46 16 52 6 7 7 15 4 18 -3 3 -2 12 2 19 5 7 9 16 10 21 1 4 2 8 4 10 1 1 3 10
5 20 5 25 26 48 39 44 6 -2 13 -14 16 -28z"/>
<path d="M710 2771 c0 -3 -29 -4 -65 -3 -75 4 -101 -8 -83 -38 9 -15 3 -50
-32 -177 -24 -87 -47 -164 -53 -170 -5 -7 -6 -13 -1 -13 4 0 -5 -13 -20 -29
-16 -16 -25 -34 -22 -40 9 -13 234 -15 255 -2 11 7 10 12 -7 26 -22 19 -22 53
2 122 6 19 11 21 32 13 17 -7 23 -7 19 0 -3 6 -2 10 4 10 5 0 13 -5 16 -10 4
-6 11 -7 17 -4 6 4 27 9 47 11 58 6 120 42 149 85 31 47 38 119 15 154 -15 24
-82 68 -90 60 -2 -2 -18 0 -34 4 -17 5 -29 5 -29 0 0 -5 -6 -7 -12 -5 -21 7
-108 12 -108 6z m109 -78 c9 -8 3 -75 -10 -106 -17 -41 -37 -56 -72 -57 -27 0
-28 2 -22 33 4 17 12 43 18 57 5 14 11 36 13 49 2 13 9 28 16 32 12 8 46 3 57
-8z"/>
<path d="M2084 2704 c-30 -26 -55 -41 -69 -39 -12 1 -30 -4 -40 -11 -16 -12
-17 -17 -5 -39 7 -14 17 -25 22 -25 15 0 8 -45 -17 -120 -30 -89 -32 -129 -5
-158 20 -21 29 -24 95 -26 63 -3 155 45 155 81 0 9 -10 12 -35 9 -49 -6 -52
17 -17 129 27 85 30 90 57 92 34 2 72 40 56 56 -5 5 -20 10 -33 11 -20 1 -23
6 -21 38 2 28 -2 38 -16 43 -41 13 -80 0 -127 -41z"/>
<path d="M1155 2672 c-6 -6 -25 -11 -58 -14 -25 -3 -66 -53 -62 -75 2 -10 4
-21 4 -25 1 -5 8 -8 16 -8 8 0 15 -4 15 -8 0 -5 18 -9 40 -9 46 0 82 32 75 67
-3 14 2 20 14 20 23 0 37 -46 20 -66 -6 -8 -8 -14 -5 -14 4 0 3 -8 -3 -17 -8
-15 -25 -18 -103 -18 -77 0 -98 -3 -120 -20 -36 -26 -52 -67 -45 -112 9 -52
36 -75 94 -80 49 -5 80 4 123 34 13 10 21 13 17 6 -11 -18 45 -43 98 -43 39 0
51 5 79 33 35 35 38 68 5 60 -22 -6 -23 -4 -8 34 6 15 13 39 15 52 3 14 9 31
13 39 13 23 -5 93 -31 118 -25 25 -46 33 -113 40 -22 2 -48 6 -57 8 -9 2 -19
1 -23 -2z m11 -221 c11 9 14 8 14 -4 0 -29 -23 -67 -41 -67 -25 0 -29 21 -10
53 9 15 17 23 19 17 3 -8 8 -7 18 1z"/>
<path d="M2663 2661 c-23 -9 -57 -29 -75 -46 -34 -30 -74 -115 -65 -138 2 -7
1 -21 -3 -32 -9 -25 12 -81 43 -109 34 -33 73 -46 139 -46 76 0 127 27 158 83
l23 40 -44 -6 c-24 -4 -54 -9 -67 -11 -30 -7 -82 13 -82 30 0 26 5 29 60 31
63 3 80 5 98 16 6 5 12 5 12 2 0 -3 14 7 30 22 56 52 37 139 -35 163 -54 18
-145 18 -192 1z m93 -73 c-3 -13 -5 -23 -6 -23 -1 0 -3 -8 -5 -18 -4 -23 -37
-49 -48 -38 -11 11 2 61 16 61 6 0 7 3 4 7 -9 9 12 33 29 33 9 0 12 -8 10 -22z"/>
<path d="M3090 2663 c-86 -29 -139 -81 -154 -149 -15 -67 -15 -83 -3 -116 27
-77 76 -108 169 -108 68 0 158 46 158 80 0 6 4 10 9 10 5 0 8 8 6 18 -1 10
-10 16 -21 14 -11 -1 -36 -5 -56 -9 -74 -12 -111 20 -106 92 2 29 30 82 53 97
13 10 35 10 34 1 -1 -5 -1 -20 0 -34 1 -31 41 -52 81 -45 14 2 28 5 32 5 4 1
14 13 22 29 20 40 1 83 -50 110 -35 18 -126 21 -174 5z"/>
<path d="M3739 2676 c-2 -2 -22 -6 -44 -8 -23 -3 -53 -13 -68 -22 -25 -17 -26
-19 -10 -42 15 -23 14 -30 -7 -97 -13 -39 -24 -80 -25 -89 -1 -10 -4 -20 -7
-23 -3 -4 -1 -21 5 -40 20 -66 115 -85 200 -40 37 20 47 22 47 11 0 -22 37
-39 91 -41 37 -1 52 3 77 24 35 30 46 66 20 66 -9 0 -20 4 -24 8 -4 4 -3 7 3
7 5 0 10 6 10 13 0 6 8 39 18 72 10 33 19 62 20 65 26 86 16 118 -38 127 -23
4 -45 6 -48 6 -4 -1 -17 -4 -30 -7 -67 -12 -99 -42 -68 -62 22 -13 -33 -200
-62 -207 -10 -3 -20 -2 -23 1 -10 10 -6 52 5 52 5 0 8 4 5 9 -4 5 -1 22 5 38
14 37 19 59 25 109 4 40 0 47 -31 54 -5 1 -17 6 -26 11 -9 4 -18 7 -20 5z"/>
<path d="M1497 2650 c-30 -17 -34 -32 -14 -49 12 -9 10 -26 -11 -98 -14 -49
-28 -89 -32 -91 -5 -2 -6 -12 -3 -22 3 -11 0 -20 -6 -20 -6 0 -10 -3 -10 -7 3
-18 -1 -36 -7 -30 -10 9 -32 -16 -27 -30 4 -9 37 -13 118 -13 112 0 138 7 117
33 -10 12 -9 51 1 77 3 8 13 40 22 71 17 62 57 110 71 87 13 -20 12 -30 -7
-69 -10 -20 -15 -39 -12 -43 4 -3 1 -6 -5 -6 -7 0 -11 -3 -10 -7 1 -5 -2 -24
-6 -44 -10 -47 5 -76 47 -94 73 -30 176 9 177 68 0 14 -5 17 -20 12 -23 -7
-25 2 -9 42 6 15 12 35 14 43 2 8 10 40 18 70 13 49 12 59 -1 87 -18 39 -57
57 -110 50 -43 -5 -56 -11 -89 -40 l-22 -20 -12 26 c-7 15 -20 29 -29 32 -30
10 -115 1 -143 -15z"/>
<path d="M2344 2656 c-41 -18 -49 -32 -30 -51 11 -12 13 -22 6 -40 -5 -14 -7
-25 -4 -25 4 0 0 -7 -7 -17 -8 -9 -13 -18 -12 -19 5 -8 -10 -65 -18 -70 -5 -3
-7 -10 -3 -15 3 -5 0 -16 -6 -24 -7 -8 -9 -15 -5 -15 4 0 2 -7 -5 -15 -7 -8
-9 -15 -5 -15 4 0 -5 -10 -19 -21 -21 -17 -25 -24 -14 -30 16 -11 206 -11 232
0 17 6 17 9 3 23 -17 17 -16 41 7 107 9 22 13 41 11 41 -2 0 3 17 12 37 14 35
18 50 24 98 2 11 -2 30 -9 43 -11 19 -21 22 -70 22 -31 -1 -71 -7 -88 -14z"/>
</g>
</svg>
